<?xml version="1.0" encoding="UTF-8" standalone="no"?><!DOCTYPE svg PUBLIC "-//W3C//DTD SVG 1.1//EN" "http://www.w3.org/Graphics/SVG/1.1/DTD/svg11.dtd"><svg width="100%" height="100%" viewBox="0 0 3068 2877" version="1.1" xmlns="http://www.w3.org/2000/svg" xmlns:xlink="http://www.w3.org/1999/xlink" xml:space="preserve" xmlns:serif="http://www.serif.com/" style="fill-rule:evenodd;clip-rule:evenodd;stroke-linejoin:round;stroke-miterlimit:2;"><path d="M2214.04,1876.5c-40.645,24.341 -79.891,42.71 -117.74,55.106c-71.23,23.329 -141.901,27.868 -212.012,13.617c-106.418,-21.631 -183.249,-70.167 -230.492,-145.607c-47.244,-75.44 -60.05,-166.369 -38.419,-272.787c15.014,-73.866 51.796,-177.857 110.345,-311.97l144.974,-328.399c4.795,-10.759 13.248,-29.9 25.361,-57.423c12.113,-27.523 22.656,-53.736 31.629,-78.638c8.973,-24.902 16.004,-49.873 21.093,-74.912c8.907,-43.819 7.137,-78.401 -5.312,-103.746c-12.448,-25.346 -34.322,-41.199 -65.621,-47.561c-58.843,-11.961 -128.201,13.378 -208.074,76.017c-79.873,62.639 -166.732,175.68 -260.576,339.123c-93.844,163.444 -187.422,381.697 -280.733,654.76c-24.033,73.337 -49.612,120.611 -76.739,141.824c-27.126,21.212 -65.103,26.855 -113.93,16.931c-42.567,-8.653 -71.518,-24.967 -86.852,-48.943c-15.334,-23.976 -17.402,-63.508 -6.205,-118.595c10.434,-51.331 30.998,-117.225 61.693,-197.682c30.694,-80.457 68.135,-174.862 112.322,-283.213c119.176,-291.273 187.67,-480.728 205.484,-568.366c9.67,-47.575 7.719,-84.476 -5.854,-110.701c-13.573,-26.226 -38.513,-43.029 -74.821,-50.409c-61.346,-12.469 -131.633,9.422 -210.86,65.674c-79.226,56.251 -167.83,166.656 -265.812,331.214c-97.982,164.558 -198.296,393.501 -300.941,686.829c-21.743,62.07 -43.61,103.907 -65.601,125.511c-21.991,21.604 -57.4,27.443 -106.227,17.519c-46.324,-9.416 -77.401,-26.489 -93.234,-51.218c-15.833,-24.729 -17.896,-65.89 -6.19,-123.48c7.889,-38.812 22.074,-87.751 42.554,-146.818c20.48,-59.066 50.925,-139.9 91.336,-242.501c72.505,-189.944 132.78,-354.996 180.825,-495.156c29.59,-87.852 50.493,-161.825 62.708,-221.92c11.452,-56.339 -3.48,-88.707 -44.795,-97.105c-32.552,-6.617 -75.048,2.019 -127.489,25.908c-52.44,23.889 -113.584,66.542 -183.431,127.96c-22.363,20.224 -44.186,28.174 -65.47,23.847c-17.528,-3.562 -31.147,-15.131 -40.857,-34.704c-9.71,-19.574 -12.402,-40.003 -8.076,-61.286c4.072,-20.032 12.276,-39.549 24.613,-58.553c12.337,-19.003 30.567,-39.742 54.691,-62.217c77.145,-71.667 157.295,-122.842 240.45,-153.525c83.155,-30.682 161.666,-38.517 235.533,-23.502c68.859,13.996 117.301,46.658 145.328,97.984c28.026,51.326 33.514,118.931 16.464,202.813c-6.871,33.804 -18.081,72.918 -33.629,117.343c-15.549,44.424 -28.753,80.525 -39.614,108.303c-10.861,27.777 -18.689,47.046 -23.483,57.804c112.843,-189.566 221.917,-315.692 327.221,-378.376c105.304,-62.684 211.166,-83.211 317.584,-61.58c81.378,16.541 139.689,58.379 174.932,125.513c35.243,67.134 42.176,153.284 20.8,258.45c-8.398,41.315 -24.466,91.501 -48.203,150.557c97.717,-160.048 196.151,-269.107 295.303,-327.175c99.151,-58.069 203.188,-76.033 312.11,-53.893c87.638,17.814 149.206,59.662 184.703,125.544c35.498,65.882 42.94,149.528 22.327,250.938c-11.197,55.087 -32.95,120.413 -65.258,195.98l-223.728,513.813c-25.244,60.054 -42.447,112.616 -51.608,157.687c-10.688,52.584 -6.497,94.502 12.572,125.756c19.069,31.254 50.514,51.334 94.333,60.241c41.315,8.398 84.491,2.833 129.527,-16.694c31.256,-13.553 67.758,-35.145 109.505,-64.777c15.678,-64.305 33.801,-123.846 54.369,-178.624c28.425,-75.704 65.942,-154.449 112.551,-236.234c20.154,-35.015 43.153,-58.369 68.997,-70.064c25.844,-11.695 63.18,-12.58 112.007,-2.656c27.543,5.599 45.745,13.862 54.606,24.789c8.86,10.927 11.509,25.154 7.946,42.682c-2.036,10.015 -15.793,42.419 -41.27,97.211c-21.936,43.778 -40.477,83.683 -55.623,119.716c-20.45,49.295 -39.202,96.654 -56.257,142.076c-17.055,45.422 -28.636,83.157 -34.744,113.204c-9.67,47.576 -1.359,74.035 24.932,79.379c18.78,3.818 46.072,-10.191 81.875,-42.024c35.804,-31.834 77.431,-82.691 124.88,-152.572c47.448,-69.882 97.521,-157.481 150.217,-262.8c17.65,-35.523 38.458,-59.323 62.424,-71.4c23.966,-12.077 56.607,-13.916 97.922,-5.518c28.795,5.853 48.064,13.68 57.805,23.483c9.74,9.802 12.83,23.467 9.267,40.994c-6.108,30.048 -44.142,133.784 -114.102,311.208c-64.677,170.675 -102.828,271.78 -114.452,303.313c-111.725,312.342 -227.363,554.141 -346.914,725.396c-119.551,171.256 -246.933,243.141 -382.146,215.657c-63.851,-12.978 -111.8,-43.258 -143.847,-90.839c-32.047,-47.58 -41.581,-103.296 -28.603,-167.147c11.961,-58.843 37.635,-116.202 77.022,-172.077c39.387,-55.876 103.781,-116.12 193.181,-180.734c89.4,-64.613 211.515,-134.636 366.344,-210.069l14.413,-42.048c18.18,-44.541 41.683,-108.86 70.51,-192.956c-43.362,85.052 -92.35,146.473 -146.965,184.26c-54.614,37.788 -106.96,51.592 -157.04,41.413c-56.338,-11.452 -97.068,-46.782 -122.188,-105.992c-7.845,-18.489 -13.695,-37.877 -17.551,-58.161Zm-47.591,816.387c31.299,6.362 73.734,-22.82 127.305,-87.546c53.572,-64.726 116.94,-177.653 190.107,-338.78c-112.944,61.783 -197.82,121.775 -254.628,179.976c-56.807,58.202 -90.301,112.342 -100.48,162.421c-4.327,21.283 -3.82,39.638 1.518,55.064c5.339,15.426 17.398,25.047 36.178,28.865Z" style="fill:#5ab717;fill-opacity:0.15;"/><g id="NestJS-Starter-kit" serif:id="NestJS Starter kit"><path d="M332.311,769.73l0,293.112l-227.001,-293.112l-105.31,-0l0,409.538l94.194,-0l-0,-292.527l227.001,292.527l105.895,-0l-0,-409.538l-94.779,-0Z" style="fill:#ea2860;fill-rule:nonzero;"/><path d="M842.479,1046.46c9.361,-131.637 -84.833,-187.217 -175.517,-187.217c-89.513,-0 -181.367,49.145 -181.367,164.4c0,115.256 93.024,164.401 181.952,164.401c77.228,-0 148.019,-31.008 168.496,-108.82l-78.397,-0c-12.286,26.327 -42.709,47.389 -90.099,47.389c-64.941,-0 -94.778,-37.444 -101.799,-80.153l276.731,0Zm-175.517,-126.371c58.506,-0 84.833,30.422 94.194,67.866l-192.483,0c11.701,-37.444 42.709,-67.866 98.289,-67.866Z" style="fill:#ea2860;fill-rule:nonzero;"/><path d="M1071.82,991.465c-55.58,-9.946 -107.65,-12.871 -107.65,-39.783c0,-23.988 26.328,-33.934 74.887,-33.934c53.825,0 76.642,19.892 76.642,39.784l89.514,0c-0,-57.335 -54.995,-98.289 -164.986,-98.289c-105.31,-0 -160.89,33.933 -160.89,96.534c0,62.016 44.464,79.567 126.957,93.024c83.078,14.041 121.692,17.551 121.692,45.634c-0,23.987 -26.328,33.348 -76.643,33.348c-50.899,0 -87.758,-13.456 -87.758,-44.464l-96.534,-0c0,70.206 68.452,104.725 178.442,104.725c112.915,-0 173.761,-31.593 173.761,-102.97c0,-71.962 -59.675,-78.397 -147.434,-93.609Z" style="fill:#ea2860;fill-rule:nonzero;"/><path d="M1469.07,928.279l0,-60.845l-91.268,-0l-0,-80.738l-88.928,0l-0,80.738l-57.921,-0l0,60.845l57.921,0l-0,129.298c-0,77.812 21.647,126.371 133.977,126.371c20.477,0 34.518,-2.925 46.219,-4.68l0,-66.696c-72.546,7.605 -91.268,-2.341 -91.268,-53.24l-0,-131.053l91.268,0Z" style="fill:#ea2860;fill-rule:nonzero;"/><path d="M1804.89,769.73l-0,227.586c-0,80.152 -25.743,119.351 -94.779,119.351c-77.812,0 -104.725,-32.178 -104.725,-114.671l0,-10.531l-89.513,0l-0,17.552c-0,113.501 49.73,179.027 194.238,179.027c119.936,-0 188.973,-44.464 188.973,-190.728l-0,-227.586l-94.194,-0Z" style="fill:#ea2860;fill-rule:nonzero;"/><path d="M2195.12,935.3c-71.961,-9.946 -139.828,-12.286 -139.828,-50.9c0,-28.082 19.892,-50.899 104.14,-50.899c75.472,-0 109.405,26.327 112.916,55.58l91.268,-0c-2.34,-72.547 -58.505,-127.542 -203.014,-127.542c-150.359,-0 -195.993,62.016 -195.993,129.297c-0,64.356 35.103,98.289 146.849,117.011c111.745,18.722 174.931,14.626 174.931,56.75c-0,31.008 -32.763,51.485 -110.575,51.485c-74.302,-0 -123.447,-21.647 -125.787,-64.356l-98.289,-0c-0,83.078 74.302,136.318 215.885,136.318c145.678,-0 218.81,-47.39 218.81,-136.318c0,-91.269 -78.397,-100.629 -191.313,-116.426Z" style="fill:#ea2860;fill-rule:nonzero;"/><path d="M182.431,1437.12c-88.496,-11.371 -136.947,-15.326 -136.947,-65.259c0,-50.923 48.945,-68.721 111.239,-68.721c64.271,-0 109.755,15.82 115.194,64.271l33.124,-0c-4.45,-69.71 -65.26,-96.407 -148.318,-96.407c-81.081,0 -144.858,33.125 -144.858,100.857c0,72.675 53.889,83.552 165.128,97.395c74.159,9.394 113.71,14.338 113.71,61.799c0,50.428 -56.36,68.721 -121.62,68.721c-58.833,0 -132.003,-11.371 -135.959,-71.193l-33.124,0c2.966,66.743 64.766,102.834 169.083,102.834c103.822,0 155.734,-41.529 155.734,-102.834c-0,-69.215 -48.451,-79.597 -142.386,-91.463Z" style="fill:#3cbc55;fill-rule:nonzero;"/><path d="M644.195,1278.42l-294.659,0l0,32.63l131.015,0l-0,313.446l32.63,-0l-0,-313.446l131.014,0l-0,-32.63Z" style="fill:#3cbc55;fill-rule:nonzero;"/><path d="M948.247,1624.49l37.08,-0l-164.139,-346.076l-42.518,0l-164.139,346.076l37.08,-0l42.023,-88.991l212.59,-0l42.023,88.991Zm-239.286,-121.621l90.968,-192.814l90.968,192.814l-181.936,-0Z" style="fill:#3cbc55;fill-rule:nonzero;"/><path d="M1263.67,1488.54c61.305,-15.326 80.092,-58.832 80.092,-102.339c0,-57.844 -27.192,-107.778 -126.565,-107.778l-182.431,0l-0,346.076l32.63,-0l-0,-130.52l144.857,-0c5.439,-0 10.877,-0 15.821,-0.495l83.552,131.015l39.058,-0l-87.014,-135.959Zm-46.473,-27.191l-149.801,-0l-0,-150.296l149.801,0c69.215,0 92.946,29.169 92.946,75.148c0,45.979 -23.236,75.148 -92.946,75.148Z" style="fill:#3cbc55;fill-rule:nonzero;"/><path d="M1675.01,1278.42l-294.659,0l0,32.63l131.014,0l0,313.446l32.63,-0l0,-313.446l131.015,0l-0,-32.63Z" style="fill:#3cbc55;fill-rule:nonzero;"/><path d="M2001.31,1591.37l-228.905,0l0,-128.048l210.118,0l-0,-33.124l-210.118,-0l0,-119.149l223.961,0l-0,-32.63l-257.085,0l-0,346.076l262.029,-0l-0,-33.125Z" style="fill:#3cbc55;fill-rule:nonzero;"/><path d="M2299.43,1488.54c61.305,-15.326 80.092,-58.832 80.092,-102.339c-0,-57.844 -27.192,-107.778 -126.565,-107.778l-182.431,0l-0,346.076l32.63,-0l-0,-130.52l144.857,-0c5.438,-0 10.877,-0 15.821,-0.495l83.552,131.015l39.057,-0l-87.013,-135.959Zm-46.473,-27.191l-149.801,-0l-0,-150.296l149.801,0c69.215,0 92.946,29.169 92.946,75.148c0,45.979 -23.236,75.148 -92.946,75.148Z" style="fill:#3cbc55;fill-rule:nonzero;"/><path d="M306.524,2133.22l42.024,-0l-164.634,-205.668l157.218,-140.408l-48.945,0l-229.893,204.679l-0,-204.679l-32.63,0l-0,346.076l32.63,-0l-0,-97.396l96.901,-86.519l147.329,183.915Z" style="fill:#3cbc55;fill-rule:nonzero;"/><rect x="397.987" y="1787.15" width="33.124" height="346.076" style="fill:#3cbc55;fill-rule:nonzero;"/><path d="M790.041,1787.15l-294.659,0l0,32.63l131.015,0l-0,313.446l32.63,-0l-0,-313.446l131.014,0l0,-32.63Z" style="fill:#3cbc55;fill-rule:nonzero;"/></g><g transform="matrix(4.16667,0,0,4.16667,-2403.6,-1895.83)"><text x="825px" y="902.72px" style="font-family:'Audimat3000-Leger', 'Audimat 3000 Leger';font-size:26px;fill:#ea2860;">With Nodemailer<tspan x="985.732px " y="902.72px ">,</tspan> MinIO Object</text><text x="825px" y="932.906px" style="font-family:'Audimat3000-Leger', 'Audimat 3000 Leger';font-size:26px;fill:#ea2860;">Storage, Drizzle ORM, Postgres</text><g transform="matrix(26,0,0,26,1012.2,963.092)"></g><text x="825px" y="963.092px" style="font-family:'Audimat3000-Leger', 'Audimat 3000 Leger';font-size:26px;fill:#ea2860;">DB, Authentication.</text></g></svg>